# xmcd CD database file
#
# Track frame offsets:
#	150
#	23065
#	47862
#	73450
#	94905
#	122952
#	148462
#	167712
#	186657
#	224290
#
# Disc length: 3373 seconds
#
# Revision: 13
# Processed by: cddbd v1.5.2PL0 Copyright (c) Steve Scherf et al.
# Submitted via: CDex 1.70beta3
#
DISCID=a80d2b0a
DTITLE=中島みゆき - 大銀幕
DYEAR=1998
DGENRE=Folk
TTITLE0=糸
TTITLE1=命の別名
TTITLE2=たかが愛
TTITLE3=愛情物語
TTITLE4=世情
TTITLE5=with
TTITLE6=私たちは春の中で
TTITLE7=眠らないで
TTITLE8=二隻の舟
TTITLE9=瞬きもせず
EXTD=YEAR: 1998
EXTT0=
EXTT1=
EXTT2=
EXTT3=
EXTT4=
EXTT5=
EXTT6=
EXTT7=
EXTT8=
EXTT9=
PLAYORDER=
